<svg width="1200" height="800" viewBox="0 0 1200 800" fill="none" xmlns="http://www.w3.org/2000/svg">
<rect width="1200" height="800" fill="url(#paint0_linear)"/>
<g opacity="0.8">
<rect x="164" y="120" width="180" height="180" rx="28" fill="white" fill-opacity="0.09"/>
<rect x="380" y="120" width="180" height="180" rx="28" fill="white" fill-opacity="0.08"/>
<rect x="596" y="120" width="180" height="180" rx="28" fill="white" fill-opacity="0.07"/>
<rect x="812" y="120" width="180" height="180" rx="28" fill="white" fill-opacity="0.09"/>
<rect x="272" y="336" width="180" height="180" rx="28" fill="white" fill-opacity="0.09"/>
<rect x="488" y="336" width="180" height="180" rx="28" fill="white" fill-opacity="0.12"/>
<rect x="704" y="336" width="180" height="180" rx="28" fill="white" fill-opacity="0.09"/>
</g>
<path d="M254 210H470M470 210H686M470 210V426M686 210H902M686 210V426M470 426H686M686 426H794" stroke="white" stroke-opacity="0.55" stroke-width="5" stroke-linecap="round"/>
<defs>
<linearGradient id="paint0_linear" x1="0" y1="0" x2="1200" y2="800" gradientUnits="userSpaceOnUse">
<stop stop-color="#111827"/>
<stop offset="0.5" stop-color="#1D4ED8"/>
<stop offset="1" stop-color="#0F766E"/>
</linearGradient>
</defs>
</svg>
